<svg height="448pt" viewBox="0 0 448 448" width="448pt" xmlns="http://www.w3.org/2000/svg"><path d="m144 384c0 8.835938-7.164062 16-16 16s-16-7.164062-16-16 7.164062-16 16-16 16 7.164062 16 16zm0 0"/><path d="m64 304c0 8.835938-7.164062 16-16 16s-16-7.164062-16-16 7.164062-16 16-16 16 7.164062 16 16zm0 0"/><path d="m64 384c0 8.835938-7.164062 16-16 16s-16-7.164062-16-16 7.164062-16 16-16 16 7.164062 16 16zm0 0"/><path d="m328 0c-66.273438 0-120 53.726562-120 120s53.726562 120 120 120 120-53.726562 120-120c-.074219-66.242188-53.757812-119.9257812-120-120zm0 232c-61.855469 0-112-50.144531-112-112s50.144531-112 112-112 112 50.144531 112 112c-.066406 61.828125-50.171875 111.933594-112 112zm0 0"/><path d="m144 304c0 8.835938-7.164062 16-16 16s-16-7.164062-16-16 7.164062-16 16-16 16 7.164062 16 16zm0 0"/><path d="m328 24c-53.019531 0-96 42.980469-96 96s42.980469 96 96 96 96-42.980469 96-96c-.058594-52.996094-43.003906-95.941406-96-96zm48 72c0 4.417969-3.582031 8-8 8s-8-3.582031-8-8v-8c0-4.417969-3.582031-8-8-8h-48c-4.417969 0-8 3.582031-8 8v16c0 4.417969 3.582031 8 8 8h48c13.253906 0 24 10.746094 24 24v16c0 13.253906-10.746094 24-24 24h-16v16c0 4.417969-3.582031 8-8 8s-8-3.582031-8-8v-16h-16c-13.253906 0-24-10.746094-24-24v-8c0-4.417969 3.582031-8 8-8s8 3.582031 8 8v8c0 4.417969 3.582031 8 8 8h48c4.417969 0 8-3.582031 8-8v-16c0-4.417969-3.582031-8-8-8h-48c-13.253906 0-24-10.746094-24-24v-16c0-13.253906 10.746094-24 24-24h16v-16c0-4.417969 3.582031-8 8-8s8 3.582031 8 8v16h16c13.253906 0 24 10.746094 24 24zm0 0"/><path d="m208 288c-8.835938 0-16 7.164062-16 16v80c0 8.835938 7.164062 16 16 16s16-7.164062 16-16v-80c0-8.835938-7.164062-16-16-16zm0 0"/><path d="m32 168v32c0 13.253906 10.746094 24 24 24h144c10.757812-.039062 20.171875-7.234375 23.039062-17.601562-14.800781-17.976563-24.722656-39.46875-28.800781-62.398438h-138.238281c-13.253906 0-24 10.746094-24 24zm0 0"/><path d="m256 235.199219c-7.457031-4.675781-14.445312-10.0625-20.863281-16.085938-7.019531 12.855469-20.488281 20.863281-35.136719 20.886719h-144c-22.082031-.027344-39.972656-17.917969-40-40v-32c.027344-22.082031 17.917969-39.972656 40-40h136.40625c-.160156-2.664062-.40625-5.296875-.40625-8s.246094-5.335938.40625-8h-168.40625c-13.253906 0-24 10.746094-24 24v288c0 13.253906 10.746094 24 24 24h208c13.253906 0 24-10.746094 24-24zm-208 180.800781c-17.671875 0-32-14.328125-32-32s14.328125-32 32-32 32 14.328125 32 32-14.328125 32-32 32zm0-80c-17.671875 0-32-14.328125-32-32s14.328125-32 32-32 32 14.328125 32 32-14.328125 32-32 32zm80 80c-17.671875 0-32-14.328125-32-32s14.328125-32 32-32 32 14.328125 32 32-14.328125 32-32 32zm0-80c-17.671875 0-32-14.328125-32-32s14.328125-32 32-32 32 14.328125 32 32-14.328125 32-32 32zm112 48c0 17.671875-14.328125 32-32 32s-32-14.328125-32-32v-80c0-17.671875 14.328125-32 32-32s32 14.328125 32 32zm0 0"/></svg>